<mxfile host="app.diagrams.net" modified="2023-12-06T17:25:18.392Z" agent="Mozilla/5.0 (Windows NT 10.0; Win64; x64) AppleWebKit/537.36 (KHTML, like Gecko) Chrome/118.0.0.0 Safari/537.36 OPR/104.0.0.0 (Edition Yx GX 03)" etag="28dGXVfF1NfwEM5VlAGX" version="22.1.5" type="device">
  <diagram name="Страница — 1" id="xmHpbR9dRChNo-AQZdz7">
    <mxGraphModel dx="1009" dy="1742" grid="1" gridSize="10" guides="1" tooltips="1" connect="1" arrows="1" fold="1" page="1" pageScale="1" pageWidth="827" pageHeight="1169" math="0" shadow="0">
      <root>
        <mxCell id="0" />
        <mxCell id="1" parent="0" />
        <mxCell id="tXkNYrn_PBVjtPBu_E_8-1" value="Ученик" style="shape=umlActor;verticalLabelPosition=bottom;verticalAlign=top;html=1;outlineConnect=0;" parent="1" vertex="1">
          <mxGeometry x="140" y="30" width="30" height="60" as="geometry" />
        </mxCell>
        <mxCell id="tXkNYrn_PBVjtPBu_E_8-2" value="Учитель&amp;nbsp;" style="shape=umlActor;verticalLabelPosition=bottom;verticalAlign=top;html=1;outlineConnect=0;" parent="1" vertex="1">
          <mxGeometry x="160" y="190" width="30" height="60" as="geometry" />
        </mxCell>
        <mxCell id="tXkNYrn_PBVjtPBu_E_8-3" value="Кл.руководитель" style="shape=umlActor;verticalLabelPosition=bottom;verticalAlign=top;html=1;outlineConnect=0;" parent="1" vertex="1">
          <mxGeometry x="160" y="350" width="30" height="60" as="geometry" />
        </mxCell>
        <mxCell id="tXkNYrn_PBVjtPBu_E_8-6" value="Завуч учебный" style="shape=umlActor;verticalLabelPosition=bottom;verticalAlign=top;html=1;outlineConnect=0;" parent="1" vertex="1">
          <mxGeometry x="414" y="60" width="30" height="60" as="geometry" />
        </mxCell>
        <mxCell id="tXkNYrn_PBVjtPBu_E_8-7" value="Просмотр оценок&amp;nbsp;" style="ellipse;whiteSpace=wrap;html=1;" parent="1" vertex="1">
          <mxGeometry x="230" y="-60" width="120" height="80" as="geometry" />
        </mxCell>
        <mxCell id="tXkNYrn_PBVjtPBu_E_8-8" value="" style="endArrow=none;html=1;rounded=0;entryX=0.087;entryY=0.85;entryDx=0;entryDy=0;entryPerimeter=0;" parent="1" source="tXkNYrn_PBVjtPBu_E_8-1" target="tXkNYrn_PBVjtPBu_E_8-7" edge="1">
          <mxGeometry width="50" height="50" relative="1" as="geometry">
            <mxPoint x="390" y="270" as="sourcePoint" />
            <mxPoint x="440" y="220" as="targetPoint" />
          </mxGeometry>
        </mxCell>
        <mxCell id="tXkNYrn_PBVjtPBu_E_8-9" value="Просмотр расписания" style="ellipse;whiteSpace=wrap;html=1;" parent="1" vertex="1">
          <mxGeometry x="40" y="-80" width="120" height="80" as="geometry" />
        </mxCell>
        <mxCell id="tXkNYrn_PBVjtPBu_E_8-10" value="" style="endArrow=none;html=1;rounded=0;" parent="1" source="tXkNYrn_PBVjtPBu_E_8-1" edge="1">
          <mxGeometry width="50" height="50" relative="1" as="geometry">
            <mxPoint x="220" y="240" as="sourcePoint" />
            <mxPoint x="110" y="10" as="targetPoint" />
          </mxGeometry>
        </mxCell>
        <mxCell id="kI7Ysv3UKKr4MRNHjASy-3" value="Выставление оценок" style="ellipse;whiteSpace=wrap;html=1;" parent="1" vertex="1">
          <mxGeometry x="230" y="130" width="120" height="80" as="geometry" />
        </mxCell>
        <mxCell id="kI7Ysv3UKKr4MRNHjASy-4" value="" style="endArrow=none;html=1;rounded=0;" parent="1" target="kI7Ysv3UKKr4MRNHjASy-3" edge="1" source="tXkNYrn_PBVjtPBu_E_8-2">
          <mxGeometry width="50" height="50" relative="1" as="geometry">
            <mxPoint x="200" y="218" as="sourcePoint" />
            <mxPoint x="270" y="160" as="targetPoint" />
          </mxGeometry>
        </mxCell>
        <mxCell id="kI7Ysv3UKKr4MRNHjASy-5" value="Назначение род. собрания" style="ellipse;whiteSpace=wrap;html=1;" parent="1" vertex="1">
          <mxGeometry x="250" y="300" width="120" height="80" as="geometry" />
        </mxCell>
        <mxCell id="kI7Ysv3UKKr4MRNHjASy-6" value="Составление расписания&amp;nbsp;" style="ellipse;whiteSpace=wrap;html=1;" parent="1" vertex="1">
          <mxGeometry x="460" y="-30" width="120" height="80" as="geometry" />
        </mxCell>
        <mxCell id="kI7Ysv3UKKr4MRNHjASy-7" value="" style="endArrow=none;html=1;rounded=0;" parent="1" source="tXkNYrn_PBVjtPBu_E_8-6" target="kI7Ysv3UKKr4MRNHjASy-6" edge="1">
          <mxGeometry width="50" height="50" relative="1" as="geometry">
            <mxPoint x="490" y="120" as="sourcePoint" />
            <mxPoint x="440" y="270" as="targetPoint" />
          </mxGeometry>
        </mxCell>
        <mxCell id="kI7Ysv3UKKr4MRNHjASy-9" value="Extends" style="endArrow=block;endSize=16;endFill=0;html=1;rounded=0;exitX=0.5;exitY=0;exitDx=0;exitDy=0;exitPerimeter=0;" parent="1" source="tXkNYrn_PBVjtPBu_E_8-2" edge="1">
          <mxGeometry width="160" relative="1" as="geometry">
            <mxPoint x="330" y="430" as="sourcePoint" />
            <mxPoint x="160" y="110" as="targetPoint" />
          </mxGeometry>
        </mxCell>
        <mxCell id="nQRjuHLdk3749OsUPG3g-1" value="Extends" style="endArrow=block;endSize=16;endFill=0;html=1;rounded=0;exitX=0.5;exitY=0;exitDx=0;exitDy=0;exitPerimeter=0;" edge="1" parent="1" source="tXkNYrn_PBVjtPBu_E_8-3">
          <mxGeometry width="160" relative="1" as="geometry">
            <mxPoint x="185" y="200" as="sourcePoint" />
            <mxPoint x="170" y="270" as="targetPoint" />
          </mxGeometry>
        </mxCell>
        <mxCell id="nQRjuHLdk3749OsUPG3g-2" value="" style="endArrow=none;html=1;rounded=0;entryX=-0.007;entryY=0.723;entryDx=0;entryDy=0;entryPerimeter=0;" edge="1" parent="1" source="tXkNYrn_PBVjtPBu_E_8-3" target="kI7Ysv3UKKr4MRNHjASy-5">
          <mxGeometry width="50" height="50" relative="1" as="geometry">
            <mxPoint x="200" y="223" as="sourcePoint" />
            <mxPoint x="250" y="202" as="targetPoint" />
          </mxGeometry>
        </mxCell>
        <mxCell id="nQRjuHLdk3749OsUPG3g-4" value="" style="endArrow=none;html=1;rounded=0;exitX=1;exitY=1;exitDx=0;exitDy=0;" edge="1" parent="1" source="tXkNYrn_PBVjtPBu_E_8-7" target="tXkNYrn_PBVjtPBu_E_8-6">
          <mxGeometry width="50" height="50" relative="1" as="geometry">
            <mxPoint x="454" y="87" as="sourcePoint" />
            <mxPoint x="494" y="52" as="targetPoint" />
          </mxGeometry>
        </mxCell>
        <mxCell id="nQRjuHLdk3749OsUPG3g-5" value="&amp;lt;&amp;lt;include&amp;gt;&amp;gt;" style="html=1;verticalAlign=bottom;labelBackgroundColor=none;endArrow=open;endFill=0;dashed=1;rounded=0;exitX=0.797;exitY=0.968;exitDx=0;exitDy=0;exitPerimeter=0;entryX=0;entryY=0;entryDx=0;entryDy=0;" edge="1" parent="1" source="kI7Ysv3UKKr4MRNHjASy-6" target="nQRjuHLdk3749OsUPG3g-6">
          <mxGeometry width="160" relative="1" as="geometry">
            <mxPoint x="330" y="100" as="sourcePoint" />
            <mxPoint x="640" y="100" as="targetPoint" />
          </mxGeometry>
        </mxCell>
        <mxCell id="nQRjuHLdk3749OsUPG3g-6" value="Расписание уроков" style="ellipse;whiteSpace=wrap;html=1;" vertex="1" parent="1">
          <mxGeometry x="635" y="50" width="120" height="80" as="geometry" />
        </mxCell>
        <mxCell id="nQRjuHLdk3749OsUPG3g-7" value="&amp;lt;&amp;lt;include&amp;gt;&amp;gt;" style="html=1;verticalAlign=bottom;labelBackgroundColor=none;endArrow=open;endFill=0;dashed=1;rounded=0;exitX=0.5;exitY=1;exitDx=0;exitDy=0;entryX=0.44;entryY=-0.005;entryDx=0;entryDy=0;entryPerimeter=0;" edge="1" target="nQRjuHLdk3749OsUPG3g-8" parent="1">
          <mxGeometry width="160" relative="1" as="geometry">
            <mxPoint x="510" y="50" as="sourcePoint" />
            <mxPoint x="510" y="123" as="targetPoint" />
          </mxGeometry>
        </mxCell>
        <mxCell id="nQRjuHLdk3749OsUPG3g-8" value="Расписание каникул" style="ellipse;whiteSpace=wrap;html=1;" vertex="1" parent="1">
          <mxGeometry x="490" y="103" width="120" height="80" as="geometry" />
        </mxCell>
      </root>
    </mxGraphModel>
  </diagram>
</mxfile>
